# Blender 3.3.0
# www.blender.org
mtllib map1.mtl
o Cube
v 5.000000 1.000000 1.000000
v 5.000000 -1.000000 1.000000
v 1.000000 1.000000 1.000000
v 1.000000 -1.000000 1.000000
v 3.000000 -1.000000 1.000000
v 3.000000 1.000000 1.000000
v -1.000000 1.000000 1.000000
v -1.000000 -1.000000 1.000000
v 7.000000 1.000000 1.000000
v 7.000000 -1.000000 1.000000
v -3.000000 -0.003628 1.000000
v -3.000000 -2.003628 1.000000
v -5.000000 -0.003628 1.000000
v -5.000000 -2.003628 1.000000
v -7.000000 1.000000 1.000000
v -7.000000 -1.000000 1.000000
v -9.000000 1.000000 1.000000
v -9.000000 -1.000000 1.000000
v -11.000000 2.003628 1.000000
v -11.000000 0.003628 1.000000
v -13.000000 2.003628 1.000000
v -13.000000 0.003628 1.000000
v -15.000000 2.003628 1.000000
v -15.000000 0.003628 1.000000
v -17.000000 1.000000 1.000000
v -17.000000 -1.000000 1.000000
v -19.000000 1.000000 1.000000
v -19.000000 -1.000000 1.000000
v 9.000000 1.000000 1.000000
v 9.000000 -1.000000 1.000000
v 5.000000 3.000000 1.000000
v 3.000000 3.000000 1.000000
v 7.000000 3.000000 1.000000
v 9.000000 3.000000 1.000000
v 5.000000 5.000000 1.000000
v 7.000000 5.000000 1.000000
v 9.000000 5.000000 1.000000
v 7.000000 7.000000 1.000000
v 9.000000 7.000000 1.000000
v 11.000000 5.000000 1.000000
v 11.000000 7.000000 1.000000
v 13.000000 5.000000 1.000000
v 13.000000 7.000000 1.000000
v 15.000000 5.000000 1.000000
v 15.000000 7.000000 1.000000
v 11.000000 9.000000 1.000000
v 13.000000 9.000000 1.000000
v -44.987686 1.000000 1.000000
v -44.987686 -1.000000 1.000000
v -43.089706 1.000000 1.000000
v -43.089706 -1.000000 1.000000
v -44.987686 6.285984 1.000000
v -43.089706 6.285984 1.000000
vn -0.0000 -0.0000 1.0000
vt 0.000000 0.000000
vt 0.000000 1.000000
vt 1.000000 0.000000
vt 1.000000 0.000000
vt 1.000000 1.000000
vt 0.000000 0.000000
vt 1.000000 0.000000
vt 0.000000 0.000000
vt 1.000000 0.000000
vt 1.000000 1.000000
vt 1.000000 0.000000
vt 0.000000 0.000000
vt 0.000000 1.000000
vt 1.000000 0.000000
vt 1.000000 1.000000
vt 0.000000 1.000000
vt 0.000000 0.000000
vt 0.000000 0.000000
vt 0.000000 1.000000
vt 1.000000 0.000000
vt 1.000000 1.000000
vt 1.000000 0.000000
vt 1.000000 1.000000
vt 1.000000 0.000000
vt 0.000000 1.000000
vt 0.000000 0.000000
vt 1.000000 1.000000
vt 1.000000 0.000000
vt 0.000000 0.000000
vt 0.000000 1.000000
vt 1.000000 1.000000
vt 1.000000 0.000000
vt 0.000000 0.000000
vt 0.000000 1.000000
vt 1.000000 1.000000
vt 1.000000 0.000000
vt 0.000000 0.000000
vt 0.000000 1.000000
vt 1.000000 1.000000
vt 1.000000 0.000000
vt 0.000000 0.000000
vt 0.000000 1.000000
vt 1.000000 1.000000
vt 1.000000 0.000000
vt 0.000000 0.000000
vt 0.000000 1.000000
vt 1.000000 1.000000
vt 1.000000 0.000000
vt 0.000000 1.000000
vt 0.000000 0.000000
vt 1.000000 1.000000
vt 1.000000 0.000000
vt 0.000000 1.000000
vt 0.000000 0.000000
vt 1.000000 1.000000
vt 0.000000 1.000000
vt 0.000000 1.000000
vt 1.000000 0.000000
vt 1.000000 1.000000
vt 0.000000 0.000000
vt 0.000000 1.000000
vt 1.000000 1.000000
vt 0.000000 1.000000
vt 0.000000 0.000000
vt 0.000000 1.000000
vt 1.000000 1.000000
vt 1.000000 0.000000
vt 1.000000 1.000000
vt 1.000000 0.000000
vt 0.000000 1.000000
vt 0.000000 0.000000
vt 0.000000 1.000000
vt 1.000000 1.000000
vt 1.000000 1.000000
vt 1.000000 0.000000
vt 0.999900 0.999899
vt 0.000000 1.000000
vt 0.999900 0.000100
vt 1.000000 1.000000
vt 0.000100 0.999899
vt 0.999900 0.999899
vt 0.999900 0.000100
vt 0.999900 0.999900
vt 0.000101 0.000100
vt 0.000100 0.999899
vt 0.999900 0.999899
vt 0.999900 0.000100
vt 0.000101 0.000100
vt 0.000100 0.999900
vt 0.000100 0.999899
vt 0.000101 0.000100
vt 0.999900 0.000100
vt 0.000100 0.000100
vt 1.000000 1.000000
vt 0.000000 1.000000
vt 1.000000 1.000000
vt 0.000000 1.000000
vt 1.000000 1.000000
vt 1.000000 1.000000
s 0
usemtl Material
f 2/4/1 9/19/1 1/1/1
f 3/7/1 8/16/1 4/8/1
f 4/9/1 6/13/1 3/6/1
f 5/11/1 1/2/1 6/12/1
f 8/17/1 11/23/1 12/25/1
f 11/24/1 14/30/1 12/26/1
f 13/28/1 16/34/1 14/29/1
f 15/32/1 18/38/1 16/33/1
f 17/36/1 20/42/1 18/37/1
f 19/40/1 22/46/1 20/41/1
f 21/44/1 24/49/1 22/45/1
f 24/50/1 25/51/1 26/53/1
f 25/52/1 28/56/1 26/54/1
f 10/22/1 29/57/1 9/18/1
f 29/58/1 33/65/1 9/18/1
f 9/20/1 31/61/1 1/1/1
f 1/3/1 32/63/1 6/12/1
f 34/69/1 36/72/1 33/64/1
f 33/67/1 35/70/1 31/60/1
f 37/75/1 38/77/1 36/71/1
f 37/76/1 41/84/1 39/78/1
f 40/81/1 43/88/1 41/82/1
f 42/86/1 45/91/1 43/87/1
f 43/89/1 46/92/1 41/83/1
f 31/60/1 35/70/1 32/63/1
f 36/71/1 38/77/1 35/70/1
f 32/63/1 3/7/1 6/12/1
f 50/96/1 49/95/1 51/97/1
f 27/55/1 51/97/1 28/56/1
f 50/96/1 52/98/1 48/94/1
f 2/4/1 10/21/1 9/19/1
f 3/7/1 7/15/1 8/16/1
f 4/9/1 5/10/1 6/13/1
f 5/11/1 2/5/1 1/2/1
f 8/17/1 7/14/1 11/23/1
f 11/24/1 13/27/1 14/30/1
f 13/28/1 15/31/1 16/34/1
f 15/32/1 17/35/1 18/38/1
f 17/36/1 19/39/1 20/42/1
f 19/40/1 21/43/1 22/46/1
f 21/44/1 23/47/1 24/49/1
f 24/50/1 23/48/1 25/51/1
f 25/52/1 27/55/1 28/56/1
f 10/22/1 30/59/1 29/57/1
f 29/58/1 34/68/1 33/65/1
f 9/20/1 33/66/1 31/61/1
f 1/3/1 31/62/1 32/63/1
f 34/69/1 37/74/1 36/72/1
f 33/67/1 36/73/1 35/70/1
f 37/75/1 39/79/1 38/77/1
f 37/76/1 40/80/1 41/84/1
f 40/81/1 42/85/1 43/88/1
f 42/86/1 44/90/1 45/91/1
f 43/89/1 47/93/1 46/92/1
f 32/63/1 7/15/1 3/7/1
f 50/96/1 48/94/1 49/95/1
f 27/55/1 50/96/1 51/97/1
f 50/96/1 53/99/1 52/98/1
